<svg xmlns="http://www.w3.org/2000/svg" viewBox="0 0 105.6 30"><path d="M14.6 22.1c-3.6 0-6.5-3.2-6.5-7.1s2.9-7 6.5-7c1.7 0 3.3.8 4.5 2l4.6-4.5c-2.4-2.4-5.6-3.9-9.2-3.9-7.3 0-13.2 6-13.2 13.4s5.9 13.5 13.1 13.5c3.6 0 6.9-1.5 9.2-3.9L19 20.1c-1.1 1.2-2.7 2-4.4 2zm18.9-20L20.8 14.6l-.4.4 13.1 12.9 4.5-4.4-8.9-8.5L38 6.6l-4.5-4.5zm35.1.4H60v25.1h8.7c7.9 0 13.7-4.8 13.7-12.6-.1-7.8-5.8-12.5-13.8-12.5zm0 19.4h-2.1V8.1h2.1c4.6 0 7 3 7 6.9 0 3.7-2.6 6.9-7 6.9zm35.3-13.8V2.5H85.3v25.1h18.6V22H91.8v-4.3h11.8V12H91.8V8.1h12.1zm-59.8-6l-4.5 4.4 8.9 8.5-8.9 8.4 4.5 4.4L57.2 15l-.4-.4L44.1 2.1z" /></svg>