<?xml version="1.0" encoding="utf-8"?><svg version="1.1" id="Layer_1" xmlns="http://www.w3.org/2000/svg" xmlns:xlink="http://www.w3.org/1999/xlink" x="0px" y="0px" viewBox="0 0 122.88 110.35" style="enable-background:new 0 0 122.88 110.35" xml:space="preserve"><g><path d="M6.32,0v6.22h12.22V0h6.32v14.88h73.15V0h6.32v6.22h12.22V0h6.32v110.35h-6.32v-7.19h-12.22v7.19h-6.32V94.79H24.87v15.56 h-6.32v-7.19H6.32v7.19H0V0H6.32L6.32,0z M50.9,57.41l12.91-13.4l8.36,8.05L59.12,65.63L50.9,57.41L50.9,57.41L50.9,57.41z M71.73,38.51c-0.39-0.37-0.84-0.56-1.35-0.54c-0.51,0-0.96,0.2-1.32,0.59l-2.98,3.1l8.36,8.08l3.01-3.15 c0.37-0.37,0.51-0.84,0.51-1.35c0-0.51-0.2-0.99-0.56-1.32L71.73,38.51L71.73,38.51L71.73,38.51z M56.08,68.8 c-1.1,0.37-2.22,0.7-3.32,1.07c-1.1,0.37-2.2,0.73-3.32,1.1c-2.62,0.84-4.05,1.32-4.36,1.41c-0.31,0.08-0.11-1.13,0.53-3.66 l2.08-7.97l0.17-0.18L56.08,68.8L56.08,68.8L56.08,68.8L56.08,68.8z M98.01,21.2H24.87v67.27h73.15V21.2L98.01,21.2z M116.56,96.84 v-11.8h-12.22v11.8H116.56L116.56,96.84z M116.56,78.72v-11.8h-12.22v11.8H116.56L116.56,78.72z M116.56,60.59v-11.8h-12.22v11.8 H116.56L116.56,60.59z M116.56,42.47v-11.8h-12.22v11.8H116.56L116.56,42.47z M116.56,24.35v-11.8h-12.22v11.8H116.56L116.56,24.35 z M18.54,96.84v-11.8H6.32v11.8H18.54L18.54,96.84z M18.54,78.72v-11.8H6.32v11.8H18.54L18.54,78.72z M18.54,60.59v-11.8H6.32v11.8 H18.54L18.54,60.59z M18.54,42.47v-11.8H6.32v11.8H18.54L18.54,42.47z M18.54,24.35v-11.8H6.32v11.8H18.54L18.54,24.35z"/></g></svg>